# xmcd
#
# Track frame offsets: 
#        150
#        13837
#        35670
#        50460
#        70460
#        86657
#        99047
#        113730
#        128010
#        146997
#        164277
#        178037
#        196805
#        209717
#        227720
#        239472
#        255375
#        270920
#        292047
#
# Disc length: 4104 seconds
#
# Revision: 1
# Processed by: cddbd v1.5.2PL0 Copyright (c) Steve Scherf et al.
# Submitted via: ExactAudioCopy v1.0b3
#
DISCID=14100613
DTITLE=Flattop Tom - Don't Cheat The Feet
DYEAR=2008
DGENRE=Jump Blues 
TTITLE0=Corrine, Corrina
TTITLE1=Doin' The Do
TTITLE2=Bump Bounce Boogie
TTITLE3=Blue Ice
TTITLE4=Hey Babba Rebop
TTITLE5=I Want To Love You
TTITLE6=Boogie 'Till The Break of Day
TTITLE7=Don't Cheat The Feet
TTITLE8=Two Timin' Baby
TTITLE9=High Flyin' Baby
TTITLE10=Pack It Up And Go
TTITLE11=Kidney Stew
TTITLE12=Bel Rey Call
TTITLE13=I'm Your Plumber, Baby
TTITLE14=Rocka Ronnie, Rock, Rock, Rock
TTITLE15=5, 500 or 5,000
TTITLE16=Topsy
TTITLE17=Should Have Been Me
TTITLE18=One Sweet Letter
EXTD=
EXTT0=
EXTT1=
EXTT2=
EXTT3=
EXTT4=
EXTT5=
EXTT6=
EXTT7=
EXTT8=
EXTT9=
EXTT10=
EXTT11=
EXTT12=
EXTT13=
EXTT14=
EXTT15=
EXTT16=
EXTT17=
EXTT18=
PLAYORDER=
